<?xml version="1.0" encoding="UTF-8"?>
<svg width="14px" height="17px" viewBox="0 0 14 17" version="1.1" xmlns="http://www.w3.org/2000/svg" xmlns:xlink="http://www.w3.org/1999/xlink">
    <!-- Generator: sketchtool 49 (51002) - http://www.bohemiancoding.com/sketch -->
    <title>0CA93831-3856-4E10-BA3F-DEAAAD36CF55</title>
    <desc>Created with sketchtool.</desc>
    <defs></defs>
    <g id="Exploration" stroke="none" stroke-width="1" fill="none" fill-rule="evenodd">
        <g id="PayPro-messaging" transform="translate(-468.000000, -548.000000)" fill="#647CE8" fill-rule="nonzero" stroke="#647CE8" stroke-width="0.5">
            <g id="Open-in-Wallet" transform="translate(284.000000, 528.000000)">
                <g id="Group-2" transform="translate(58.000000, 20.000000)">
                    <g id="copy-icon" transform="translate(127.000000, 1.000000)">
                        <path d="M11.9293276,2.04026665 L9.26741986,2.04026665 L9.26741986,0.713217965 C9.26741986,0.319978453 8.9577707,0 8.57729805,0 L0.690121812,0 C0.309551428,0 0,0.319978453 0,0.713217965 L0,12.2465827 C0,12.6398222 0.309551428,12.9598344 0.69015439,12.9598344 L3.35206212,12.9598344 L3.35206212,14.286782 C3.35206212,14.6800215 3.66161354,15 4.04221651,15 L11.9293602,15 C12.3098654,15 12.6195146,14.6800215 12.6195146,14.286782 L12.6195146,2.75348461 C12.619482,2.36017777 12.3098328,2.04026665 11.9293276,2.04026665 Z M0.690121812,12.3484614 C0.635912848,12.3484614 0.59154229,12.3027069 0.59154229,12.2465827 L0.59154229,0.713217965 C0.59154229,0.657026463 0.635912848,0.611339304 0.690121812,0.611339304 L8.57729805,0.611339304 C8.63160474,0.611339304 8.67587757,0.657026463 8.67587757,0.713217965 L8.67587757,2.04026665 L8.67587757,12.2465827 C8.67587757,12.3027069 8.63160474,12.3484614 8.57729805,12.3484614 L0.690121812,12.3484614 Z M11.9293602,14.388223 L4.04218393,14.388223 C3.98797496,14.388223 3.94360441,14.3428389 3.94360441,14.286378 L3.94360441,13.0016161 L8.57729805,13.0016161 C8.95780327,13.0016161 9.26745243,12.6816039 9.26745243,12.2883644 L9.26745243,12.2461787 L9.26745243,12.072049 L9.26745243,11.4607097 L9.26745243,9.96639957 L9.26745243,9.35509393 L9.26745243,7.82674567 L9.26745243,7.21540637 L9.26745243,5.74735708 L9.26745243,5.13601778 L9.26745243,2.65160595 L11.9293602,2.65160595 C11.9836669,2.65160595 12.0279397,2.69725944 12.0279397,2.75348461 L12.0279397,14.286378 C12.0279397,14.3428725 11.9836669,14.388223 11.9293602,14.388223 Z" id="Shape"></path>
                    </g>
                </g>
            </g>
        </g>
    </g>
</svg>